<?xml version="1.0" standalone="no"?>
<!DOCTYPE svg PUBLIC "-//W3C//DTD SVG 20010904//EN"
 "http://www.w3.org/TR/2001/REC-SVG-20010904/DTD/svg10.dtd">
<svg version="1.0" xmlns="http://www.w3.org/2000/svg"
 width="298.000000pt" height="204.000000pt" viewBox="0 0 298.000000 204.000000"
 preserveAspectRatio="xMidYMid meet">

<g transform="translate(0.000000,204.000000) scale(0.100000,-0.100000)"
fill="#000000" stroke="none">
<path d="M1455 1975 c-48 -17 -71 -43 -85 -97 -15 -52 1 -98 46 -138 44 -39
110 -42 161 -7 18 12 33 24 33 27 0 3 -20 4 -45 2 -38 -3 -48 0 -70 23 -34 37
-34 93 -1 132 19 22 32 28 65 27 34 -1 39 1 30 12 -9 11 -72 35 -89 34 -3 -1
-23 -7 -45 -15z"/>
<path d="M1867 1803 c-3 -5 -8 -207 -11 -450 -7 -419 -6 -442 11 -451 38 -20
43 -6 43 120 0 67 2 119 5 116 4 -4 24 -145 28 -208 1 -14 -3 -25 -10 -25 -6
0 -15 -3 -18 -7 -12 -11 -12 -97 0 -95 5 1 9 -5 7 -13 -2 -8 0 -12 4 -8 10 10
37 -29 29 -42 -3 -6 1 -7 9 -4 12 5 16 0 16 -20 0 -19 5 -26 20 -26 14 0 20
-7 20 -22 0 -18 -2 -20 -10 -8 -14 23 -22 6 -10 -24 5 -15 8 -31 5 -36 -3 -5
-1 -11 5 -15 5 -3 9 -25 9 -48 -1 -23 -4 -32 -6 -20 -2 13 -9 23 -14 23 -5 0
-9 -78 -9 -185 l0 -185 23 0 c18 0 22 5 22 34 0 19 -3 38 -7 42 -11 11 -10 34
2 34 6 0 10 -10 10 -22 0 -29 20 -10 23 21 1 11 5 21 10 21 5 0 7 6 4 14 -5
12 29 50 46 51 4 0 12 7 17 15 7 11 10 11 10 2 0 -7 5 -10 11 -7 6 4 8 13 5
20 -2 7 11 27 29 45 25 24 43 33 72 34 26 1 38 -3 38 -13 0 -8 6 -16 13 -19 7
-2 10 2 6 12 -3 9 -1 16 4 16 6 0 9 -10 6 -23 -6 -32 13 -70 41 -84 15 -6 25
-7 25 -1 0 5 4 7 10 3 5 -3 6 -13 3 -22 -4 -11 -2 -14 8 -11 8 3 14 11 14 19
1 8 7 25 14 37 7 13 15 35 17 49 6 32 44 87 64 91 10 3 8 -4 -7 -20 -58 -61
-91 -224 -59 -285 9 -18 26 -39 38 -47 22 -15 20 -16 -33 -16 l-55 0 2 76 c2
69 0 79 -21 100 -13 13 -31 24 -39 24 -8 0 -19 14 -25 32 -16 46 -40 68 -73
68 -32 0 -78 -41 -78 -71 0 -10 -15 -25 -37 -36 -31 -15 -39 -25 -46 -57 -4
-22 -15 -48 -23 -58 -10 -11 -15 -28 -12 -48 4 -30 4 -30 -41 -30 l-46 0 0
263 0 263 -59 79 c-33 43 -60 88 -59 99 1 12 -1 15 -4 8 -3 -8 -25 6 -61 39
-65 59 -163 109 -228 117 -28 3 -44 10 -44 18 0 8 6 14 13 14 16 0 47 31 47
47 0 6 -13 13 -28 16 -27 5 -74 57 -53 57 5 0 13 -9 16 -21 5 -16 12 -19 30
-15 14 4 25 1 28 -7 4 -9 6 -9 6 1 1 6 12 12 26 12 23 0 24 -2 13 -25 -6 -14
-13 -23 -16 -21 -5 6 -52 -48 -52 -59 0 -4 11 -5 25 -3 13 3 26 2 27 -1 2 -3
29 -18 60 -33 38 -18 58 -23 60 -16 3 9 13 8 37 -1 42 -18 56 -5 43 40 l-10
34 -1 -37 c-1 -39 -21 -55 -21 -17 0 11 -4 18 -9 15 -5 -3 -12 1 -15 10 -3 8
-2 12 4 9 17 -11 11 24 -7 41 -10 9 -58 39 -108 68 -52 29 -95 62 -102 76 -11
21 -13 22 -13 6 0 -11 7 -27 15 -36 14 -16 14 -18 0 -24 -9 -3 -13 -2 -10 4
10 16 -19 50 -42 50 -35 0 -46 -34 -40 -121 l5 -77 -38 -6 c-54 -9 -125 -41
-182 -83 -45 -32 -179 -189 -207 -240 -7 -15 -11 -106 -11 -282 l0 -261 -77 2
-78 2 64 3 63 4 -6 34 c-4 18 -3 36 2 39 10 6 7 60 -4 78 -4 6 -2 8 3 5 8 -5
11 44 10 157 -1 182 15 263 57 282 12 5 22 15 22 22 1 6 2 16 3 21 0 4 12 19
25 32 13 13 27 35 31 47 6 21 4 23 -15 17 -21 -7 -21 -5 -18 94 2 56 0 101 -3
101 -21 0 -186 -73 -196 -87 -7 -9 -13 -33 -13 -53 0 -20 -6 -43 -12 -52 -7
-9 -50 -28 -95 -42 -45 -15 -86 -33 -91 -39 -10 -12 -25 -59 -36 -109 -4 -16
-13 -28 -20 -28 -14 0 -16 23 -3 36 4 4 7 37 6 73 0 43 -3 59 -8 46 -5 -11 -6
-26 -4 -32 3 -7 0 -13 -6 -13 -16 0 -14 65 3 79 11 9 15 9 20 -1 3 -7 5 -4 2
8 -3 17 4 23 40 32 l44 12 0 89 0 89 -35 26 -35 27 -30 -22 c-22 -17 -27 -25
-18 -32 9 -6 8 -7 -4 -4 -18 6 -71 -30 -63 -43 3 -4 -3 -14 -13 -21 -15 -13
-16 -12 -3 4 9 11 10 17 2 17 -15 0 -18 -11 -26 -92 -4 -42 -11 -68 -19 -68
-6 0 -46 -20 -88 -45 -71 -42 -77 -47 -83 -86 -4 -23 -20 -60 -36 -83 -24 -35
-31 -60 -45 -171 -15 -117 -20 -133 -44 -155 -14 -14 -24 -24 -22 -23 2 1 11
-4 19 -12 16 -16 38 -21 29 -6 -3 5 3 11 14 14 24 6 27 -8 3 -17 -12 -5 -14
-9 -5 -18 21 -21 38 -17 40 11 4 66 10 99 21 117 11 17 12 15 7 -11 -24 -127
-19 -178 20 -225 l26 -30 -39 0 c-37 0 -39 2 -36 27 9 62 -74 143 -131 129
-97 -24 -123 -154 -45 -221 l31 -25 489 0 489 0 0 186 0 185 33 -3 32 -3 3
-182 2 -183 40 0 40 0 0 185 0 185 35 0 35 0 0 -185 0 -185 50 0 50 0 0 165 0
165 80 0 80 0 0 -165 0 -165 55 0 55 0 0 185 0 185 30 0 30 0 0 -184 0 -184
41 -4 c22 -2 42 -2 45 1 2 2 4 87 4 188 l0 183 30 0 30 0 0 -185 0 -185 484 0
484 0 31 26 c70 58 55 171 -27 213 -20 10 -46 28 -56 40 -11 12 -24 21 -30 21
-6 0 2 -11 18 -24 l30 -23 -38 -18 c-47 -23 -70 -57 -71 -106 l0 -39 -44 0
c-24 0 -42 1 -40 3 2 1 17 13 34 27 26 22 28 22 11 2 -19 -22 -19 -22 4 -22
21 0 22 3 17 37 -5 27 -4 34 4 23 7 -11 8 -6 5 20 -3 19 -8 57 -11 85 -15 114
-66 195 -123 195 -25 0 -26 10 0 14 7 1 19 5 26 9 7 5 14 2 18 -7 3 -9 11 -13
17 -9 6 4 8 0 4 -9 -7 -20 11 -38 31 -31 12 5 14 1 10 -15 -4 -12 -2 -22 4
-22 5 0 6 -5 2 -12 -4 -6 1 -17 12 -25 14 -10 16 -16 7 -21 -8 -5 -9 -13 -3
-22 6 -8 10 -41 10 -74 l0 -59 18 24 c24 31 40 78 37 109 -2 14 -6 61 -10 105
-5 61 -12 89 -31 116 -16 24 -29 61 -35 105 -5 37 -11 69 -13 71 -2 2 -17 8
-35 13 -31 9 -45 -3 -16 -14 8 -3 14 -13 12 -23 -1 -10 3 -18 8 -18 6 0 9 8 8
18 -2 9 2 17 7 17 18 0 11 -49 -9 -60 -17 -8 -20 -6 -26 21 -4 17 -9 28 -11
26 -3 -2 0 -26 6 -53 21 -90 21 -104 -1 -104 -10 0 -19 5 -19 10 0 6 5 10 12
10 9 0 9 3 1 11 -6 6 -9 18 -6 25 3 10 -11 21 -43 35 -27 12 -51 26 -52 30 -2
5 -7 7 -12 4 -4 -3 -6 3 -3 13 2 11 -3 26 -12 36 -9 9 -12 16 -6 16 5 0 -1 11
-14 25 -14 13 -25 33 -25 45 0 19 4 20 38 15 22 -4 32 -3 24 2 -9 7 -29 109
-32 164 0 4 -32 32 -70 64 l-71 57 -34 -27 c-32 -24 -49 -45 -25 -30 13 8 13
-28 0 -41 -5 -5 -6 -35 -3 -67 6 -55 8 -59 41 -73 47 -19 53 -10 8 11 -20 10
-36 24 -36 31 0 12 4 12 20 2 11 -7 20 -16 20 -21 0 -4 4 -6 9 -2 9 5 28 -19
29 -35 1 -3 3 -12 6 -20 2 -8 8 -42 12 -75 6 -50 8 -56 15 -35 7 20 8 18 4
-10 -3 -18 -10 -37 -16 -40 -6 -4 -4 -12 6 -20 8 -7 15 -18 15 -24 0 -6 -6 -4
-13 5 -7 9 -23 21 -37 28 -22 11 -22 10 4 -11 23 -19 31 -37 37 -79 11 -81 10
-116 -3 -122 -9 -3 -13 9 -14 44 -1 56 -12 73 -75 104 -40 21 -48 30 -58 69
-6 25 -11 47 -11 50 0 2 21 -7 48 -21 26 -13 39 -18 30 -10 -10 8 -14 18 -10
22 4 5 1 5 -7 0 -10 -5 -12 -4 -7 3 4 7 18 9 32 6 16 -4 24 -2 24 7 0 11 3 11
10 -1 13 -21 12 -6 -1 24 -9 18 -36 35 -98 62 l-86 36 -60 -16 c-56 -14 -61
-14 -72 1 -12 16 -18 11 -13 -12 1 -5 -2 -7 -6 -2 -13 13 -15 49 -2 41 8 -5 9
0 5 17 -4 13 -7 28 -7 32 0 5 -4 5 -10 2 -5 -3 -10 1 -10 10 0 9 5 13 10 10 6
-4 10 12 10 42 0 76 -7 90 -56 109 l-44 17 0 138 0 137 50 11 c71 15 145 14
262 -6 117 -19 185 -11 250 32 34 22 38 30 38 66 l0 40 -43 -26 c-68 -39 -135
-48 -236 -30 -47 8 -103 15 -123 15 -46 0 -49 12 -7 32 l31 15 -37 23 c-20 12
-34 24 -32 27 3 2 45 -6 93 -18 157 -40 269 -26 342 41 22 21 30 74 13 84 -5
3 -36 -9 -70 -26 -53 -27 -71 -31 -129 -30 -37 0 -105 10 -152 21 -47 12 -122
24 -167 27 -81 7 -83 7 -83 33 0 36 -30 66 -43 44z m146 -225 c4 -12 2 -18 -8
-18 -8 0 -15 -5 -15 -10 0 -6 -8 -5 -20 2 -22 14 -22 37 -1 54 16 13 32 3 44
-28z m-353 -453 c0 -12 -19 -12 -23 0 -4 9 -1 12 9 8 7 -3 14 -7 14 -8z m-992
-12 c5 -10 12 -36 15 -58 5 -28 4 -34 -3 -20 -5 11 -9 30 -9 43 -1 13 -7 22
-16 22 -8 0 -15 7 -15 15 0 20 17 19 28 -2z m37 -4 c11 -16 1 -19 -13 -3 -7 8
-8 14 -3 14 5 0 13 -5 16 -11z m1264 -64 c-2 -53 -19 -80 -19 -31 0 13 -3 38
-6 55 -5 25 -3 31 10 31 14 0 17 -9 15 -55z m-262 -12 c-3 -10 -5 -4 -5 12 0
17 2 24 5 18 2 -7 2 -21 0 -30z m-787 -44 c0 -17 -7 -37 -15 -45 -13 -14 -15
-13 -15 10 0 14 5 28 11 31 6 4 8 13 5 21 -3 8 -1 14 4 14 6 0 10 -14 10 -31z
m1539 -80 c6 9 10 8 13 -7 4 -15 1 -18 -13 -15 -16 4 -19 14 -17 52 l1 46 4
-45 c3 -27 7 -39 12 -31z m-1752 45 c-3 -3 -12 -4 -19 -1 -8 3 -5 6 6 6 11 1
17 -2 13 -5z m930 -34 c58 -27 153 -102 153 -121 0 -20 -54 -7 -97 22 -130 90
-277 89 -403 -2 -30 -22 -50 -29 -73 -27 l-32 3 37 41 c20 22 61 53 90 69 111
60 215 65 325 15z m753 -6 c0 -8 -5 -12 -10 -9 -6 4 -8 11 -5 16 9 14 15 11
15 -7z m-1926 -65 c-4 -41 -4 -41 26 -37 16 3 30 1 30 -4 0 -4 -8 -8 -18 -8
-23 0 -125 -55 -143 -76 -7 -9 3 -5 24 9 21 14 60 33 87 42 28 9 54 24 59 33
16 29 22 6 7 -24 -8 -16 -19 -41 -24 -55 -8 -19 -25 -30 -79 -49 -50 -17 -72
-30 -80 -47 -10 -21 -9 -23 7 -18 11 3 29 1 41 -5 13 -7 19 -8 15 -2 -3 6 -1
14 6 18 8 5 6 9 -7 14 -19 7 -19 7 2 18 20 11 22 10 20 -20 -2 -29 1 -33 21
-30 15 1 22 -2 19 -10 -2 -7 0 -21 5 -30 5 -12 5 -18 -1 -18 -14 0 -1 -33 16
-43 7 -5 11 -12 8 -18 -4 -5 -1 -9 4 -9 6 0 11 -11 11 -25 0 -16 6 -25 15 -25
18 0 20 -26 3 -36 -7 -4 -8 -3 -4 4 4 7 2 12 -5 12 -7 0 -9 -10 -7 -25 3 -14
2 -25 -1 -25 -4 0 -13 28 -20 61 -8 34 -24 81 -36 105 -12 24 -18 41 -13 38 4
-3 8 -1 8 3 0 5 -20 10 -44 11 -52 2 -86 -26 -110 -91 -11 -30 -14 -33 -10
-12 3 17 8 45 11 63 3 18 9 35 14 38 14 8 10 24 -6 24 -8 0 -15 5 -15 11 0 5
5 7 10 4 10 -6 41 53 39 77 0 7 -4 3 -9 -10 -9 -22 -10 -22 -27 -5 -17 17 -17
19 0 36 9 9 17 23 17 31 0 8 6 17 13 19 7 3 5 6 -5 6 -19 1 -26 21 -8 21 6 0
10 6 10 14 0 19 27 28 34 10 7 -18 26 -18 26 0 0 13 52 76 63 76 3 0 3 -19 1
-41z m1486 37 c0 -3 -4 -8 -10 -11 -5 -3 -10 -1 -10 4 0 6 5 11 10 11 6 0 10
-2 10 -4z m437 -38 c-3 -7 -5 -2 -5 12 0 14 2 19 5 13 2 -7 2 -19 0 -25z
m-1977 3 c0 -5 -7 -12 -16 -15 -14 -5 -15 -4 -4 9 14 17 20 19 20 6z m1540
-21 c0 -16 -4 -30 -10 -30 -11 0 -14 43 -3 53 11 12 13 8 13 -23z m-1050 10
c0 -5 -5 -10 -11 -10 -5 0 -7 5 -4 10 3 6 8 10 11 10 2 0 4 -4 4 -10z m1330
-4 c0 -2 -7 -6 -15 -10 -8 -3 -15 -1 -15 4 0 6 7 10 15 10 8 0 15 -2 15 -4z
m-1513 -28 c-3 -8 -6 -5 -6 6 -1 11 2 17 5 13 3 -3 4 -12 1 -19z m1620 -14
c-4 -4 -21 -2 -39 3 -26 9 -28 11 -10 12 12 1 22 6 22 13 0 8 6 6 17 -5 9 -9
14 -20 10 -23z m-1547 -24 c0 -5 -5 -10 -11 -10 -5 0 -7 5 -4 10 3 6 8 10 11
10 2 0 4 -4 4 -10z m99 -25 c19 -21 20 -24 5 -19 -13 4 -10 -2 9 -19 21 -19
30 -37 32 -68 2 -23 7 -45 12 -48 11 -8 14 -323 3 -316 -5 3 -11 -3 -14 -13
-4 -10 -21 -32 -38 -48 l-32 -29 31 37 c58 68 67 159 34 340 -22 122 -31 142
-71 163 -64 33 -109 -18 -134 -154 -32 -173 -16 -303 43 -355 11 -11 21 -27
21 -38 0 -15 -8 -18 -45 -18 -25 0 -45 4 -45 8 0 4 16 6 35 4 42 -5 45 8 12
47 -26 31 -45 30 -42 -2 1 -12 0 -14 -2 -5 -11 43 -80 71 -122 48 -22 -11 -45
-64 -37 -85 4 -12 -4 -15 -41 -15 l-46 0 20 23 c11 12 25 31 31 42 6 11 12 15
12 9 0 -6 -9 -23 -21 -38 l-20 -26 24 0 c20 0 26 6 31 34 4 18 15 41 26 51 11
10 20 24 20 32 0 16 22 17 38 1 8 -8 15 -8 26 1 8 7 23 10 33 7 16 -5 18 1 18
67 0 39 3 95 8 122 4 28 8 67 8 88 1 20 5 40 10 42 8 6 25 93 21 109 -2 5 4 6
13 2 9 -3 18 1 22 10 3 8 12 13 20 10 8 -3 11 -1 8 4 -9 14 29 12 43 -2 6 -6
15 -8 19 -4 4 4 1 11 -7 16 -8 6 -10 10 -5 10 6 0 21 -12 34 -25z m-269 0 c0
-8 -4 -15 -10 -15 -5 0 -10 7 -10 15 0 8 5 15 10 15 6 0 10 -7 10 -15z m67 -7
c-3 -8 -6 -5 -6 6 -1 11 2 17 5 13 3 -3 4 -12 1 -19z m1177 -39 c14 -11 26
-25 26 -30 0 -5 -83 -9 -197 -9 -114 0 -193 -4 -188 -9 6 -5 55 -25 109 -45
86 -31 111 -36 188 -36 87 0 88 0 88 -25 0 -21 -5 -25 -30 -25 -25 0 -30 -4
-30 -25 0 -14 -3 -25 -7 -25 -5 0 -81 27 -170 60 l-161 61 -159 -61 c-88 -33
-162 -60 -166 -60 -4 0 -7 11 -7 25 0 22 -4 25 -35 25 -31 0 -35 3 -35 25 0
25 1 25 92 25 82 0 103 4 188 36 52 21 99 41 105 45 5 5 -82 9 -195 9 l-205 1
35 29 34 30 347 0 c335 0 347 -1 373 -21z m-1556 -32 c19 -13 14 -37 -8 -37
-11 0 -20 5 -20 10 0 6 -4 10 -10 10 -16 0 -12 -27 6 -34 8 -3 13 -10 9 -15
-9 -16 -35 -1 -35 21 0 45 25 65 58 45z m2380 -17 c3 -8 0 -10 -8 -5 -9 6 -12
4 -8 -7 4 -8 2 -21 -3 -29 -6 -10 -9 -2 -7 24 2 36 17 46 26 17z m-123 0 c3
-5 1 -10 -4 -10 -6 0 -11 5 -11 10 0 6 2 10 4 10 3 0 8 -4 11 -10z m165 -71
c0 -4 -9 -5 -20 -2 -12 3 -20 14 -20 26 0 19 1 20 20 2 11 -10 20 -21 20 -26z
m-2193 -31 c-3 -7 -5 -2 -5 12 0 14 2 19 5 13 2 -7 2 -19 0 -25z m2198 -138
c3 -5 1 -10 -4 -10 -6 0 -11 5 -11 10 0 6 2 10 4 10 3 0 8 -4 11 -10z m-2208
-137 c-2 -16 -4 -3 -4 27 0 30 2 43 4 28 2 -16 2 -40 0 -55z"/>
<path d="M430 829 c0 -5 5 -7 10 -4 6 3 10 8 10 11 0 2 -4 4 -10 4 -5 0 -10
-5 -10 -11z"/>
<path d="M839 1758 c-16 -30 -28 -38 -62 -38 l-29 0 25 -30 c21 -25 24 -35 17
-65 -9 -39 -1 -43 40 -21 21 12 29 12 52 0 41 -21 47 -18 37 23 -7 33 -5 41
18 65 l27 28 -37 0 c-30 0 -39 5 -52 30 -19 36 -21 36 -36 8z"/>
<path d="M1144 1612 c-19 -13 -23 -41 -8 -57 19 -19 29 -19 48 1 9 8 16 19 16
24 0 10 -29 40 -38 40 -4 0 -12 -4 -18 -8z"/>
<path d="M432 1587 l-22 -23 24 -23 24 -23 22 22 22 22 -24 24 -24 25 -22 -24z"/>
<path d="M1420 1455 c-61 -43 -65 -49 -72 -93 -3 -26 -7 -73 -7 -104 -1 -63
-9 -75 -70 -102 -22 -11 -41 -23 -41 -29 0 -5 6 -5 14 2 11 9 12 3 4 -36 -5
-27 -13 -60 -18 -75 -5 -16 -4 -30 1 -34 5 -3 9 0 9 5 0 6 14 11 31 11 16 0
28 3 26 8 -3 4 7 8 21 8 15 1 41 7 57 14 17 7 35 12 42 11 18 -3 26 18 12 35
-8 10 -9 30 -4 67 4 28 8 60 8 69 1 9 5 14 9 12 4 -3 8 -1 8 4 0 6 11 13 25
16 14 4 25 11 25 17 0 6 5 7 12 3 7 -5 9 -1 6 13 -4 15 2 22 23 30 16 7 29 7
29 2 0 -14 27 -11 44 6 13 13 15 11 21 -15 5 -21 13 -30 26 -30 10 0 19 4 19
9 0 5 10 12 23 14 12 2 4 5 -19 6 l-42 1 -7 55 c-6 54 -8 56 -66 95 -32 22
-64 43 -72 45 -7 3 -42 -15 -77 -40z m-23 -60 c-4 -8 -13 -15 -22 -15 -13 0
-12 3 3 18 19 21 27 20 19 -3z m-40 -177 c-3 -8 -6 -5 -6 6 -1 11 2 17 5 13 3
-3 4 -12 1 -19z m-37 -68 c0 -5 -10 -15 -22 -21 l-23 -12 20 21 c23 24 25 25
25 12z"/>
<path d="M302 1345 c-8 -16 -23 -28 -42 -32 l-31 -6 20 -21 c14 -15 18 -29 14
-50 -5 -26 -4 -28 13 -21 10 5 28 8 39 8 11 0 29 -3 39 -8 17 -7 18 -5 13 21
-4 21 0 35 16 52 l20 22 -26 0 c-19 0 -31 8 -42 30 -9 17 -17 30 -19 30 -1 0
-8 -11 -14 -25z"/>
<path d="M2612 1333 l-24 -26 25 -25 c25 -24 25 -24 51 -6 14 11 26 22 26 26
0 8 -45 59 -51 57 -2 -1 -15 -12 -27 -26z"/>
<path d="M1555 1287 c11 -8 62 -37 112 -66 51 -29 95 -56 98 -62 4 -5 11 -9
17 -9 18 0 -31 33 -135 93 -91 53 -138 75 -92 44z"/>
<path d="M1753 1283 c9 -2 23 -2 30 0 6 3 -1 5 -18 5 -16 0 -22 -2 -12 -5z"/>
<path d="M1821 1144 c0 -11 3 -14 6 -6 3 7 2 16 -1 19 -3 4 -6 -2 -5 -13z"/>
<path d="M1781 1124 c0 -11 3 -14 6 -6 3 7 2 16 -1 19 -3 4 -6 -2 -5 -13z"/>
<path d="M2712 1030 c-7 -11 -20 -20 -29 -20 -13 0 -14 -3 -5 -12 7 -7 12 -25
12 -41 0 -25 2 -28 15 -17 12 10 21 10 41 1 24 -10 25 -10 22 12 -1 14 3 32
11 41 12 14 11 16 -7 16 -12 0 -23 9 -27 20 -3 11 -9 20 -13 20 -4 0 -13 -9
-20 -20z"/>
<path d="M198 1011 l-27 -28 28 -27 29 -27 27 25 27 25 -23 30 c-13 16 -26 30
-29 30 -3 0 -17 -13 -32 -28z"/>
<path d="M1211 1024 c0 -11 3 -14 6 -6 3 7 2 16 -1 19 -3 4 -6 -2 -5 -13z"/>
<path d="M1731 977 c2 -1 13 -9 24 -17 19 -14 19 -14 6 3 -7 9 -18 17 -24 17
-6 0 -8 -1 -6 -3z"/>
<path d="M1150 920 c-8 -5 -10 -10 -5 -10 6 0 17 5 25 10 8 5 11 10 5 10 -5 0
-17 -5 -25 -10z"/>
<path d="M1880 861 c0 -11 5 -23 10 -26 6 -3 10 3 10 14 0 11 -4 23 -10 26 -5
3 -10 -3 -10 -14z"/>
<path d="M2543 773 c9 -2 23 -2 30 0 6 3 -1 5 -18 5 -16 0 -22 -2 -12 -5z"/>
<path d="M264 227 c3 -10 6 -27 6 -38 0 -10 7 -19 15 -19 19 0 19 3 -6 42 -12
18 -18 25 -15 15z"/>
<path d="M2430 205 c0 -31 3 -35 25 -35 l25 0 -18 35 c-22 44 -32 44 -32 0z"/>
</g>
</svg>
